<svg xmlns="http://www.w3.org/2000/svg" xmlns:xlink="http://www.w3.org/1999/xlink" id="Layer_1" x="0" y="0" version="1.1" viewBox="0 0 512 512" style="enable-background:new 0 0 512 512" xml:space="preserve"><g><path d="M288,128V64H96v320h112v64h192V128H288z M272,128h-41.4L272,86.3V128z M112,368V80h143.6l-47.5,48H208v240H112z M384,432 H224v-48V144h64h96V432z"/><g><rect width="126" height="32" x="240" y="160"/></g><g><rect width="126" height="16" x="240" y="208"/></g><g><rect width="126" height="16" x="240" y="240"/></g><g><rect width="126" height="16" x="240" y="336"/></g><g><rect width="126" height="16" x="240" y="368"/></g><g><rect width="126" height="16" x="240" y="400"/></g><g><rect width="126" height="48" x="240" y="272"/></g></g></svg>